# xmcd
#
# Track frame offsets:
# 150
# 13876
# 31705
# 47477
# 65669
# 79952
# 96411
# 108110
# 121656
# 140643
# 152532
# 165282
# 177238
# 190555
# 206049
# 217340
# 234089
# 251147
# 268453
# 284071
#
# Disc length: 4000 seconds
#
#
# Revision: 2
# Processed by: cddbd v1.5.1PL0 Copyright (c) Steve Scherf et al.
# Submitted via: FreeRIP 2.941 
#
DISCID=200f9e14
DTITLE=Joao Mineiro e Marciano Raizes Sertanejas - Joao Mineiro e Marciano Raizes Sertanejas
DYEAR=1998
DGENRE=Sertanejo
TTITLE0=Aline
TTITLE1=Romaria
TTITLE2=Se eu pudesse conversar com Deus
TTITLE3=Milagre da flecha
TTITLE4=Ainda ontem chorei de saudade
TTITLE5=Se eu nao puder te esquecer
TTITLE6=Whisky com gelo
TTITLE7=Crises de Amor
TTITLE8=Distante dos olhos
TTITLE9=Nas curvas do seu corpo capotei meu coracao
TTITLE10=Dama da noite
TTITLE11=A mulher que amo
TTITLE12=Esta noite como lembranca
TTITLE13=Tudo passara
TTITLE14=Cancao do nosso adeus
TTITLE15=Esse meu coracao sem juizo
TTITLE16=Eu daria a minha vida
TTITLE17=Mais uma noite vou dormir sem meu bem
TTITLE18=As paredes azuis
TTITLE19=Nao se bate em quem se ama
EXTD=YEAR: 1998
EXTT0=
EXTT1=
EXTT2=
EXTT3=
EXTT4=
EXTT5=
EXTT6=
EXTT7=
EXTT8=
EXTT9=
EXTT10=
EXTT11=
EXTT12=
EXTT13=
EXTT14=
EXTT15=
EXTT16=
EXTT17=
EXTT18=
EXTT19=
PLAYORDER=
